# xmcd CD database file
# Copyright (C) 1995-1998 Ti Kan
#
# Track frame offsets:
#	182
#	14232
#	35420
#	53435
#	71497
#	90305
#	101185
#	115542
#	129612
#	151275
#	164900
#	180567
#	199935
#	212107
#	225777
#	247490
#	259980
#	278770
#
# Disc length: 3909 seconds
#
# Revision: 2
# Processed by: cddbd v1.4b41PL1 Copyright (c) Steve Scherf et al.
# Submitted via: CDex 1.30Release
#
DISCID=020f4312
DTITLE=Rob Hoeke - Rob Hoeke
DYEAR=1900
DGENRE=Blues
TTITLE0=Boogie Blues
TTITLE1=Local Shuffle
TTITLE2=For Miss Caulker
TTITLE3=Honky Tonk Train Blues
TTITLE4=Drinking On My bed
TTITLE5=Brushing The Boogie
TTITLE6=My Babe
TTITLE7=Don't Leave Me Baby
TTITLE8=Sentimental Journey
TTITLE9=When People Talk
TTITLE10=Playin' Hooky
TTITLE11=One, Two...
TTITLE12=How Many More Nights
TTITLE13=Down South
TTITLE14=Kansas City
TTITLE15=My Life
TTITLE16=Blow Wind Blow
TTITLE17=Margio
EXTD=ID3G:   0
EXTT0=
EXTT1=
EXTT2=
EXTT3=
EXTT4=
EXTT5=
EXTT6=
EXTT7=
EXTT8=
EXTT9=
EXTT10=
EXTT11=
EXTT12=
EXTT13=
EXTT14=
EXTT15=
EXTT16=
EXTT17=
PLAYORDER=
